<svg width="619" height="627" viewBox="0 0 619 627" fill="none" xmlns="http://www.w3.org/2000/svg">
<g clip-path="url(#clip0_27:3)">
<g opacity="0.6">
<path fill-rule="evenodd" clip-rule="evenodd" d="M137.721 183.612L135.195 37.0172L136.195 37L138.721 183.594L137.721 183.612ZM235.029 213.204L321.234 94.6082L322.043 95.1961L235.838 213.792L235.029 213.204ZM32.9276 208.395L-65.1535 99.4164L-64.4102 98.7475L33.6709 207.726L32.9276 208.395ZM261.783 322.824C261.783 386.02 210.552 437.251 147.355 437.251C84.1586 437.251 32.9275 386.02 32.9275 322.824C32.9275 259.627 84.1586 208.396 147.355 208.396C210.552 208.396 261.783 259.627 261.783 322.824ZM250.886 459.047L348.967 568.026L349.71 567.357L251.629 458.378L250.886 459.047ZM31.9502 448.149L-54.2551 566.745L-53.4462 567.333L32.7591 448.737L31.9502 448.149ZM141.906 491.741L144.432 638.335L145.432 638.318L142.906 491.723L141.906 491.741ZM-158.991 313.73L-12.3807 315.042L-12.3897 316.042L-159 314.73L-158.991 313.73ZM445.309 312.484L298.742 316.289L298.768 317.289L445.335 313.484L445.309 312.484Z" fill="#FBAF00"/>
<path fill-rule="evenodd" clip-rule="evenodd" d="M245.095 300.771C250.632 252.577 291.569 215.151 341.246 215.151C389.667 215.151 429.784 250.708 436.91 297.135C446.503 294.843 456.515 293.629 466.81 293.629C537.602 293.629 594.99 351.017 594.99 421.809C594.99 479.003 557.531 527.449 505.807 543.949C504.933 547.419 501.791 549.989 498.049 549.989H466.965L466.81 549.989L466.656 549.989H126.893C125.92 549.989 124.988 549.815 124.125 549.497C68.3547 544.228 24.7203 497.27 24.7203 440.12C24.7203 379.441 73.9101 330.252 134.589 330.252C149.41 330.252 163.545 333.186 176.445 338.506C176.444 338.371 176.444 338.235 176.444 338.099C176.444 313.539 196.354 293.629 220.914 293.629C229.831 293.629 238.134 296.253 245.095 300.771Z" fill="#DDDFDF"/>
</g>
</g>
<defs>
<clipPath id="clip0_27:3">
<rect width="619" height="627" fill="white"/>
</clipPath>
</defs>
</svg>