<svg width="161" height="99" viewBox="0 0 161 99" fill="none" xmlns="http://www.w3.org/2000/svg">
<mask id="path-1-inside-1_59:137" fill="white">
<path fill-rule="evenodd" clip-rule="evenodd" d="M100.823 28.735C99.4168 16.5007 89.025 7 76.4141 7C64.1222 7 53.9385 16.0261 52.1294 27.8119C49.6942 27.23 47.1526 26.9219 44.5391 26.9219C26.5682 26.9219 12 41.4901 12 59.4609C12 76.1262 24.5284 89.8653 40.6806 91.7736C41.2888 91.9216 41.9243 92 42.5781 92H124.859C125.336 92 125.802 91.9584 126.256 91.8786C127.118 91.9589 127.992 92 128.875 92C144.279 92 156.766 79.5129 156.766 64.1094C156.766 48.7058 144.279 36.2187 128.875 36.2187C125.113 36.2187 121.524 36.9637 118.25 38.3141C118.25 38.2798 118.25 38.2454 118.25 38.2109C118.25 31.9762 113.196 26.9219 106.961 26.9219C104.697 26.9219 102.59 27.588 100.823 28.735Z"/>
</mask>
<path fill-rule="evenodd" clip-rule="evenodd" d="M100.823 28.735C99.4168 16.5007 89.025 7 76.4141 7C64.1222 7 53.9385 16.0261 52.1294 27.8119C49.6942 27.23 47.1526 26.9219 44.5391 26.9219C26.5682 26.9219 12 41.4901 12 59.4609C12 76.1262 24.5284 89.8653 40.6806 91.7736C41.2888 91.9216 41.9243 92 42.5781 92H124.859C125.336 92 125.802 91.9584 126.256 91.8786C127.118 91.9589 127.992 92 128.875 92C144.279 92 156.766 79.5129 156.766 64.1094C156.766 48.7058 144.279 36.2187 128.875 36.2187C125.113 36.2187 121.524 36.9637 118.25 38.3141C118.25 38.2798 118.25 38.2454 118.25 38.2109C118.25 31.9762 113.196 26.9219 106.961 26.9219C104.697 26.9219 102.59 27.588 100.823 28.735Z" fill="#DFDFDF"/>
<path d="M100.823 28.735L102.456 31.2514L98.3948 33.8875L97.8422 29.0775L100.823 28.735ZM52.1294 27.8119L55.0947 28.2671L54.6005 31.4868L51.4322 30.7298L52.1294 27.8119ZM40.6806 91.7736L41.0325 88.7943L41.2131 88.8157L41.3897 88.8586L40.6806 91.7736ZM126.256 91.8786L125.736 88.924L126.132 88.8541L126.534 88.8915L126.256 91.8786ZM118.25 38.3141L119.393 41.0876L115.209 42.813L115.25 38.2871L118.25 38.3141ZM97.8422 29.0775C96.6084 18.3401 87.4831 10 76.4141 10V4C90.5668 4 102.225 14.6613 103.803 28.3926L97.8422 29.0775ZM76.4141 10C65.6258 10 56.6825 17.9229 55.0947 28.2671L49.1641 27.3567C51.1945 14.1293 62.6186 4 76.4141 4V10ZM51.4322 30.7298C49.2236 30.202 46.916 29.9219 44.5391 29.9219V23.9219C47.3891 23.9219 50.1647 24.258 52.8266 24.894L51.4322 30.7298ZM44.5391 29.9219C28.2251 29.9219 15 43.147 15 59.4609H9C9 39.8333 24.9114 23.9219 44.5391 23.9219V29.9219ZM15 59.4609C15 74.5876 26.3727 87.0623 41.0325 88.7943L40.3286 94.7529C22.6841 92.6683 9 77.6648 9 59.4609H15ZM41.3897 88.8586C41.7676 88.9506 42.165 89 42.5781 89V95C41.6836 95 40.8101 94.8926 39.9715 94.6886L41.3897 88.8586ZM42.5781 89H124.859V95H42.5781V89ZM124.859 89C125.161 89 125.453 88.9737 125.736 88.924L126.776 94.8332C126.151 94.9431 125.511 95 124.859 95V89ZM126.534 88.8915C127.304 88.9632 128.085 89 128.875 89V95C127.899 95 126.932 94.9546 125.977 94.8657L126.534 88.8915ZM128.875 89C142.622 89 153.766 77.8561 153.766 64.1094H159.766C159.766 81.1698 145.935 95 128.875 95V89ZM153.766 64.1094C153.766 50.3626 142.622 39.2187 128.875 39.2187V33.2187C145.935 33.2187 159.766 47.0489 159.766 64.1094H153.766ZM128.875 39.2187C125.512 39.2187 122.312 39.8841 119.393 41.0876L117.106 35.5407C120.737 34.0433 124.714 33.2187 128.875 33.2187V39.2187ZM115.25 38.2871C115.25 38.2617 115.25 38.2363 115.25 38.2109H121.25C121.25 38.2544 121.25 38.2978 121.249 38.3411L115.25 38.2871ZM115.25 38.2109C115.25 33.633 111.539 29.9219 106.961 29.9219V23.9219C114.853 23.9219 121.25 30.3193 121.25 38.2109H115.25ZM106.961 29.9219C105.295 29.9219 103.751 30.4105 102.456 31.2514L99.1892 26.2187C101.428 24.7656 104.1 23.9219 106.961 23.9219V29.9219Z" fill="#979797" fill-opacity="0.75" mask="url(#path-1-inside-1_59:137)"/>
</svg>
