<svg width="965" height="821" viewBox="0 0 965 821" fill="none" xmlns="http://www.w3.org/2000/svg">
<path fill-rule="evenodd" clip-rule="evenodd" d="M331.288 102H345.418V202.32H331.288V102ZM501.55 380C501.55 470.326 428.326 543.55 338 543.55C247.674 543.55 174.45 470.326 174.45 380C174.45 289.674 247.674 216.45 338 216.45C428.326 216.45 501.55 289.674 501.55 380ZM542.209 186.172L532.218 176.18L461.281 247.118L471.272 257.109L542.209 186.172ZM205.118 503.281L215.109 513.272L144.172 584.209L134.18 574.218L205.118 503.281ZM515.68 373.288V387.418H616V373.288H515.68ZM60 387.418V373.288H160.32V387.418H60ZM144.172 176.18L134.18 186.172L205.118 257.109L215.109 247.118L144.172 176.18ZM461.281 513.272L471.272 503.281L542.209 574.218L532.218 584.209L461.281 513.272ZM345.418 557.68H331.288V658H345.418V557.68Z" fill="#FBAF00"/>
<path fill-rule="evenodd" clip-rule="evenodd" d="M469.16 426.804C468.828 426.313 468.5 425.82 468.175 425.325C468.067 425.82 467.952 426.314 467.829 426.804H469.16ZM449.095 373.541C448.452 368.448 448.121 363.257 448.121 357.989C448.121 290.064 503.185 235 571.109 235C634.778 235 687.147 283.38 693.46 345.383C713.06 335.645 735.151 330.17 758.521 330.17C839.384 330.17 904.936 395.722 904.936 476.585C904.936 557.448 839.384 623 758.521 623C758.364 623 758.207 623 758.05 622.999C757.998 623 757.946 623 757.894 623H314.517H312.581C312.17 623 311.763 622.984 311.36 622.954C253.993 621.284 208 574.255 208 516.483C208 457.655 255.689 409.966 314.517 409.966C333.933 409.966 352.136 415.161 367.812 424.237C367.187 421.041 366.86 417.738 366.86 414.358C366.86 386.057 389.804 363.113 418.106 363.113C429.751 363.113 440.489 366.998 449.095 373.541Z" fill="#DDDFDF"/>
</svg>
